<?xml version="1.0" encoding="UTF-8"?><svg id="a" xmlns="http://www.w3.org/2000/svg" viewBox="0 0 512 512"><defs><style>.b{fill:#fff;}</style></defs><g><path class="b" d="M84.6,84.54v9c-7.93-7.28-18.45-11.58-30.47-11.58-24.83,0-44.58,17.1-50.47,41.64l40.53,70.31h25.36c5.64-1.96,10.72-5.03,15.05-9v9h34.73V84.54h-34.73Zm-23.6,78.24c-13.5,0-23.4-10.06-23.4-23.56s9.9-23.6,23.4-23.6,23.6,10.06,23.6,23.6-10.1,23.56-23.6,23.56Z"/><path class="b" d="M189.63,124.22c-10.06-2.17-17.59-3.89-17.59-9,0-4.54,6.01-6.46,13.29-6.46,10.51,0,19.1,3.89,27.69,9.24l15.42-21.88c-10.51-7.28-24.66-14.15-44.38-14.15-25.52,0-46.55,11.78-46.55,36.03,0,26.14,23.6,31.49,40.53,35.17,10.31,2.13,17.79,4.05,17.79,9.2,0,4.7-6.22,7.28-15.21,7.28-12.43,0-22.29-4.7-31.09-11.37l-15.46,21.88c7.2,5.48,16.28,10.8,27.69,13.74,5.97,1.64,12.6,2.58,19.92,2.58s13.74-.86,19.71-2.58c17.26-4.83,28.96-16.61,28.96-34.77,0-26.14-23.8-31.74-40.74-34.93Z"/><path class="b" d="M311.23,134.28l37.79-41.19-4.95-8.55h-32.03l-31.7,36.65v-39.72h-34.77v112.44h34.77v-25.73l6.42-7.32,26.14,33.05h45.48l-47.16-59.63Z"/></g><g><path class="b" d="M217.01,365.18v47.12h-5.36v-10.9c-3.88,7.3-11.27,12.01-20.33,12.01-13.67,0-23.93-10.62-23.93-24.67s10.25-24.67,23.93-24.67c9.05,0,16.44,4.71,20.33,12.01v-10.9h5.36Zm-5.36,23.56c0-11.09-8.31-19.49-19.4-19.49s-19.31,8.41-19.31,19.49,8.31,19.49,19.31,19.49,19.4-8.41,19.4-19.49Z"/><path class="b" d="M279.1,426.15l-5.54,1.29c-.09-4.71-4.25-7.85-10.44-7.85h-18.57c-7.3,0-12.19-4.16-12.19-10.35,0-4.16,2.12-8.04,5.54-9.88-4.07-3.7-6.56-8.96-6.56-14.97,0-11.55,9.05-20.33,21.16-20.33,4.62,0,8.87,1.29,12.29,3.6,.65-4.9,4.44-8.04,9.89-8.04h3.51v4.99h-3.23c-3.79,0-6.37,2.4-6.37,6.1v.28c3.14,3.51,4.99,8.13,4.99,13.4,0,11.55-9.05,20.23-21.06,20.23-4.16,0-8.04-1.02-11.18-2.86-2.31,1.29-3.6,3.7-3.6,6.19,0,3.88,3.14,6.37,7.76,6.37h18.57c8.59,0,14.51,4.53,15.06,11.83Zm-26.61-26.61c8.87,0,15.52-6.56,15.52-15.15s-6.65-15.24-15.52-15.24-15.61,6.56-15.61,15.24,6.74,15.15,15.61,15.15Z"/><path class="b" d="M334.44,391.05h-43.24c1.11,10.16,9.24,17.37,20.05,17.37,7.67,0,14.23-3.7,17.65-8.96l3.79,3.14c-4.53,6.65-12.38,10.81-21.62,10.81-14.6,0-25.5-10.72-25.5-24.76s10.53-24.58,24.58-24.58,24.48,10.53,24.48,24.67c0,.74-.09,1.57-.18,2.31Zm-43.24-4.8h37.79c-1.11-10.07-8.87-17.18-18.94-17.18s-17.74,7.11-18.85,17.18Z"/><path class="b" d="M392.09,383.75v28.55h-5.36v-26.98c0-9.7-6.37-16.08-15.98-16.08s-16.72,6.47-16.72,16.26v26.79h-5.36v-47.12h5.36v8.87c3.51-6.37,9.98-9.98,18.29-9.98,11.83,0,19.77,7.76,19.77,19.68Z"/><path class="b" d="M405.86,388.74c0-14.04,10.72-24.67,24.95-24.67,9.33,0,17.18,4.62,21.43,11.83l-4.71,2.86c-3.23-5.73-9.42-9.52-16.72-9.52-11.09,0-19.4,8.41-19.4,19.49s8.31,19.49,19.4,19.49c7.3,0,13.49-3.79,16.72-9.52l4.71,2.86c-4.25,7.21-12.1,11.83-21.43,11.83-14.23,0-24.95-10.62-24.95-24.67Z"/><path class="b" d="M508.87,365.18l-26.79,58.11c-2.22,4.99-6.28,7.67-10.62,7.67-3.51,0-7.39-1.76-9.79-4.34l2.4-4.06c1.57,1.94,4.07,3.23,6.65,3.23s4.8-1.29,6.47-4.62l4.34-8.96-21.34-47.03h6.19l18.29,40.93,18.2-40.93h6Z"/></g><g><path class="b" d="M167.38,225.33v9c-7.93-7.28-18.45-11.57-30.47-11.57-25.44,0-45.56,17.96-50.88,43.52l40.37,69.94c3.35,.7,6.87,1.06,10.51,1.06,5.48,0,10.68-.9,15.42-2.58,5.64-1.96,10.72-5.03,15.05-9v9h34.73v-109.37h-34.73Zm-23.6,78.24c-13.5,0-23.4-10.06-23.4-23.56s9.9-23.6,23.4-23.6,23.6,10.06,23.6,23.6-10.1,23.56-23.6,23.56Z"/><path class="b" d="M291.52,222.75c-12.43,0-23.15,4.09-31.53,12.23v-9.65h-34.73v109.37h34.73v-58.98c0-11.58,7.93-19.31,19.76-19.31,11.13,0,18.2,7.53,18.2,18.86v59.43h34.77v-71.01c0-24.66-16.52-40.94-41.19-40.94Z"/><path class="b" d="M409.89,307.46c-12.02,0-21.27-6.42-24.91-16.93h77.3l-37.51-64.95c-5.85-1.84-12.15-2.82-18.77-2.82-33.21,0-58.33,24.46-58.33,56.61,0,26.75,17.18,48.14,42.25,55.34,5.89,1.68,12.23,2.58,18.86,2.58s13.05-.9,19.02-2.58c11.9-3.27,22.21-9.61,29.9-18.04l-22.95-19.92c-4.75,5.15-13.74,10.72-24.87,10.72Zm-4.09-55.14c9.86,0,18,6.46,21.02,16.73h-42.05c3.23-10.27,11.17-16.73,21.02-16.73Z"/><circle class="b" cx="489.57" cy="316.07" r="19.29"/></g></svg>