<svg width="130" height="130" viewBox="0 0 130 130" fill="none" xmlns="http://www.w3.org/2000/svg">
<circle r="63.2301" transform="matrix(-1 0 0 1 65.2191 64.7809)" stroke="white" stroke-width="2"/>
<path fill-rule="evenodd" clip-rule="evenodd" d="M105.304 81.3106L106.825 81.801L108.129 77.7531L114.671 79.8633L115.274 77.9951L107.211 75.3945L105.304 81.3106ZM104.328 83.1356L105.55 84.674L103.641 88.1174L101.689 87.8928L100.69 89.6939L109.936 90.4917L110.876 88.7965L105.303 81.3768L104.328 83.1356ZM105.242 88.3L106.546 85.9479L108.729 88.699L105.242 88.3ZM95.6308 95.526L96.8411 96.5692L99.9851 92.9142L101.205 100.091L102.168 100.92L106.82 95.5114L105.61 94.4682L102.64 97.9212L101.428 90.7355L100.465 89.9057L95.6308 95.526ZM93.9662 96.8767L94.4809 98.7742L91.3664 101.181L89.6635 100.202L88.0344 101.46L96.2082 105.855L97.7414 104.67L95.557 95.6474L93.9662 96.8767ZM92.7643 101.983L94.8917 100.339L95.8091 103.731L92.7643 101.983ZM85.473 102.658L86.4918 104.788L84.8652 105.568L82.3726 104.145L80.4731 105.056L83.3625 106.692C82.9649 107.152 82.728 107.652 82.6518 108.195C82.5757 108.737 82.6735 109.293 82.9452 109.861C83.2169 110.429 83.5866 110.856 84.0544 111.142C84.5222 111.428 85.0594 111.565 85.6659 111.551C86.2724 111.538 86.9141 111.369 87.5909 111.044L90.8987 109.458L87.2415 101.809L85.473 102.658ZM85.7248 106.889L87.1658 106.198L88.4406 108.864L86.9996 109.555C86.4683 109.81 86.0095 109.889 85.6232 109.792C85.237 109.695 84.9411 109.432 84.7356 109.002C84.5335 108.58 84.5151 108.186 84.6802 107.82C84.8453 107.454 85.1935 107.144 85.7248 106.889ZM72.8046 107.093L73.1933 108.619L77.6615 107.477L78.1458 109.378L74.3344 110.353L74.7111 111.832L78.5225 110.857L78.9769 112.642L74.6612 113.745L75.0499 115.271L81.2537 113.685L79.1609 105.468L72.8046 107.093ZM66.9195 107.502L63.7237 116.174L65.6692 116.065L67.9468 109.871L70.8534 115.777L72.9682 115.659L68.853 107.394L66.9195 107.502ZM62.2772 107.438C61.9477 107.41 61.6605 107.498 61.4158 107.704C61.171 107.91 61.0339 108.181 61.0043 108.519C60.974 108.865 61.0621 109.155 61.2685 109.388C61.4749 109.62 61.7429 109.751 62.0724 109.78C62.402 109.809 62.6886 109.726 62.9323 109.533C63.176 109.339 63.313 109.069 63.3433 108.723C63.3728 108.385 63.2849 108.094 63.0796 107.849C62.8742 107.604 62.6068 107.467 62.2772 107.438ZM58.4578 106.924L57.3065 108.518L53.4806 107.605L53.1722 105.663L51.1709 105.186L52.8888 114.315L54.7723 114.764L60.4119 107.389L58.4578 106.924ZM53.7354 109.198L56.3488 109.821L54.2891 112.669L53.7354 109.198ZM46.8922 102.904C46.3398 102.638 45.7507 102.457 45.125 102.362C44.4993 102.267 43.904 102.276 43.3391 102.389L41.8473 105.49L43.461 106.267L44.5378 104.029C45.0499 104.007 45.5604 104.118 46.0692 104.363C46.5489 104.595 46.9261 104.904 47.2006 105.292C47.4752 105.68 47.6285 106.11 47.6607 106.583C47.6929 107.055 47.5952 107.528 47.3676 108.001C47.1365 108.482 46.8262 108.857 46.4368 109.127C46.0475 109.396 45.6147 109.542 45.1387 109.564C44.6627 109.585 44.1812 109.479 43.6941 109.244C42.9236 108.873 42.4041 108.269 42.1356 107.431L40.4974 107.933C40.6615 108.541 40.9619 109.089 41.3985 109.577C41.8351 110.066 42.3877 110.471 43.0565 110.793C43.8561 111.178 44.6571 111.356 45.4596 111.325C46.2621 111.295 46.9877 111.066 47.6364 110.639C48.2851 110.212 48.7916 109.62 49.1558 108.863C49.52 108.106 49.6666 107.341 49.5957 106.567C49.5248 105.793 49.2546 105.084 48.785 104.441C48.3154 103.798 47.6845 103.286 46.8922 102.904ZM37.0326 96.6032L36.0753 97.8538L39.7348 100.66L38.5419 102.219L35.4203 99.8246L34.4925 101.037L37.6141 103.431L36.4948 104.893L32.9603 102.182L32.003 103.433L37.084 107.329L42.2384 100.596L37.0326 96.6032ZM34.6833 94.0345L30.7755 97.3848L31.9369 90.8234L30.8903 89.5997L24.4538 95.1178L25.7129 96.5899L29.6208 93.2396L28.4515 99.7918L29.506 101.025L35.9424 95.5066L34.6833 94.0345ZM27.9858 84.3229C27.6385 83.6754 27.2099 83.1496 26.7001 82.7455C26.1902 82.3414 25.623 82.0781 24.9986 81.9556L24.5702 83.6162C25.4312 83.804 26.062 84.2714 26.4627 85.0184C26.7107 85.4809 26.8308 85.948 26.8228 86.4198C26.8148 86.8917 26.6839 87.3265 26.4301 87.7243C26.1763 88.1221 25.8184 88.4453 25.3563 88.6938C24.8942 88.9424 24.4275 89.0628 23.9562 89.0551C23.4849 89.0473 23.0506 88.9165 22.6534 88.6627C22.2562 88.4088 21.9335 88.0506 21.6855 87.5882C21.2848 86.8411 21.2405 86.0582 21.5524 85.2395L19.9335 84.6803C19.6977 85.2655 19.6064 85.8807 19.6593 86.526C19.7123 87.1713 19.9125 87.8177 20.2597 88.4651C20.6719 89.2335 21.2082 89.8365 21.8689 90.2741C22.5296 90.7117 23.2476 90.9489 24.023 90.9856C24.7983 91.0223 25.5557 90.8418 26.295 90.4441C27.0344 90.0464 27.6028 89.5137 28.0004 88.846C28.398 88.1783 28.597 87.4479 28.5975 86.6547C28.598 85.8614 28.3941 85.0841 27.9858 84.3229ZM24.6311 76.267L21.7594 77.1423L15.5681 75.5851L16.1277 77.428L20.3871 78.4977L17.444 81.7628L18.0493 83.7564L22.3064 79.027L25.2013 78.1447L24.6311 76.267ZM21.2351 64.5031C21.2382 64.1181 21.1059 63.7895 20.8381 63.5172C20.5704 63.2449 20.2368 63.1072 19.8374 63.1042C19.4381 63.1012 19.1041 63.2338 18.8357 63.502C18.5673 63.7702 18.4315 64.0968 18.4284 64.4818C18.4253 64.8669 18.5557 65.1955 18.8198 65.4677C19.0838 65.74 19.4156 65.8777 19.8149 65.8807C20.2143 65.8837 20.5501 65.7511 20.8222 65.4829C21.0943 65.2147 21.232 64.8881 21.2351 64.5031ZM25.9869 48.826L24.4599 48.3567L23.2112 52.4222L16.6406 50.4027L16.0643 52.2791L24.1618 54.7678L25.9869 48.826ZM26.9335 47.0026L25.6894 45.4814L27.5509 42.0116L29.5053 42.2089L30.479 40.394L21.2232 39.7257L20.3067 41.4339L25.9826 48.7748L26.9335 47.0026ZM25.9474 41.8515L24.6759 44.2216L22.4544 41.5013L25.9474 41.8515ZM35.4658 34.479L34.2414 33.4525L31.1476 37.1501L29.8299 29.9911L28.8559 29.1745L24.2774 34.6467L25.5018 35.6732L28.4246 32.18L29.7345 39.3483L30.7085 40.1649L35.4658 34.479ZM37.1047 33.1113L36.5639 31.2211L39.6449 28.7715L41.3612 29.7272L42.9727 28.4459L34.739 24.1645L33.2222 25.3705L35.531 34.3624L37.1047 33.1113ZM38.236 27.9891L36.1314 29.6623L35.1674 26.2834L38.236 27.9891ZM45.5192 27.2116L44.4711 25.0954L46.0868 24.2927L48.5988 25.6818L50.4856 24.7445L47.5738 23.1484C47.9651 22.6835 48.1951 22.1794 48.2637 21.6359C48.3323 21.0925 48.2269 20.5386 47.9474 19.9742C47.6679 19.4099 47.2923 18.988 46.8206 18.7084C46.3488 18.4289 45.8098 18.3 45.2036 18.3217C44.5973 18.3434 43.958 18.5213 43.2857 18.8552L40.0001 20.4874L43.7626 28.0843L45.5192 27.2116ZM45.2091 22.9843L43.7778 23.6954L42.4663 21.0473L43.8976 20.3363C44.4253 20.0741 44.883 19.9888 45.2706 20.0802C45.6581 20.1717 45.9576 20.4308 46.1691 20.8577C46.3769 21.2773 46.4008 21.6711 46.2407 22.0391C46.0807 22.4071 45.7368 22.7222 45.2091 22.9843ZM58.1384 22.5978L57.7289 21.0772L53.2767 22.2809L52.7665 20.386L56.5643 19.3592L56.1675 17.8854L52.3696 18.9122L51.8909 17.1343L56.1912 15.9717L55.7818 14.4511L49.6001 16.1224L51.8048 24.3101L58.1384 22.5978ZM64.0107 22.1089L67.0853 13.3933L65.1414 13.5287L62.9504 19.7538L59.9617 13.8897L57.8488 14.0369L62.0788 22.2435L64.0107 22.1089ZM68.6393 22.1085C68.9692 22.1327 69.2551 22.0403 69.4971 21.8312C69.739 21.6221 69.8724 21.3484 69.8973 21.0101C69.9228 20.6637 69.8307 20.3755 69.6212 20.1455C69.4116 19.9156 69.1418 19.7885 68.8119 19.7643C68.482 19.7401 68.1965 19.8266 67.9555 20.0235C67.7145 20.2205 67.5812 20.4922 67.5557 20.8386C67.5308 21.1769 67.6227 21.4671 67.8314 21.7092C68.0401 21.9513 68.3094 22.0844 68.6393 22.1085ZM72.4739 22.5704L73.6031 20.9606L77.4412 21.8195L77.7765 23.757L79.7842 24.2063L77.9401 15.1021L76.0505 14.6793L70.5135 22.1317L72.4739 22.5704ZM77.1645 20.2303L74.5427 19.6436L76.5628 16.7681L77.1645 20.2303ZM84.0943 26.4295C84.6504 26.6878 85.242 26.8602 85.869 26.9466C86.496 27.033 87.0911 27.0155 87.6543 26.8942L89.1024 23.7728L87.4779 23.0182L86.4327 25.2713C85.9209 25.3008 85.4089 25.1966 84.8967 24.9587C84.4138 24.7343 84.0323 24.4302 83.7523 24.0463C83.4724 23.6625 83.313 23.2344 83.2741 22.7621C83.2353 22.2899 83.3263 21.8156 83.5473 21.3393C83.7716 20.8557 84.0766 20.4763 84.4621 20.2012C84.8477 19.9261 85.2783 19.7743 85.754 19.7459C86.2297 19.7175 86.7127 19.8172 87.2029 20.0449C87.9786 20.4052 88.5065 21.0022 88.7868 21.836L90.4178 21.3111C90.2452 20.7055 89.9371 20.1616 89.4937 19.6795C89.0503 19.1974 88.492 18.8001 87.8188 18.4873C87.0138 18.1135 86.2104 17.9473 85.4084 17.9889C84.6064 18.0305 83.8841 18.2695 83.2414 18.7057C82.5988 19.142 82.1007 19.7411 81.7472 20.5032C81.3937 21.2652 81.2578 22.0326 81.3396 22.8053C81.4214 23.5781 81.7015 24.2827 82.1801 24.9191C82.6586 25.5556 83.2967 26.059 84.0943 26.4295ZM94.0431 32.5928L94.9827 31.3289L91.2839 28.5743L92.4547 26.9993L95.6098 29.3489L96.5204 28.1239L93.3653 25.7742L94.4638 24.2964L98.0363 26.957L98.9758 25.693L93.8403 21.8685L88.7814 28.6743L94.0431 32.5928ZM96.421 35.1254L100.282 31.7213L99.2117 38.2981L100.275 39.5071L106.635 33.9003L105.355 32.4458L101.494 35.8499L102.573 29.2822L101.501 28.0641L95.1417 33.6709L96.421 35.1254ZM103.253 44.747C103.609 45.3897 104.045 45.9097 104.56 46.3069C105.075 46.7042 105.646 46.9598 106.272 47.0739L106.678 45.4077C105.815 45.2316 105.178 44.7727 104.767 44.0311C104.513 43.572 104.386 43.1065 104.388 42.6346C104.39 42.1627 104.515 41.7262 104.763 41.325C105.012 40.9239 105.365 40.5959 105.824 40.3411C106.283 40.0864 106.748 39.9597 107.219 39.9611C107.691 39.9625 108.127 40.0875 108.527 40.336C108.928 40.5845 109.255 40.9383 109.509 41.3974C109.92 42.139 109.975 42.9212 109.674 43.744L111.3 44.2814C111.528 43.6931 111.611 43.0767 111.55 42.4322C111.488 41.7877 111.279 41.1441 110.923 40.5013C110.501 39.7386 109.956 39.1428 109.29 38.7142C108.623 38.2855 107.902 38.058 107.127 38.0317C106.351 38.0054 105.596 38.1961 104.862 38.6037C104.128 39.0113 103.567 39.5516 103.178 40.2245C102.789 40.8975 102.6 41.6305 102.61 42.4237C102.621 43.2169 102.835 43.9913 103.253 44.747ZM106.721 52.7534L109.58 51.838L115.792 53.3085L115.207 51.4736L110.933 50.4636L113.831 47.1576L113.197 45.1727L109.007 49.9611L106.124 50.8839L106.721 52.7534ZM110.281 64.4866C110.283 64.8716 110.42 65.1985 110.691 65.4671C110.963 65.7357 111.298 65.8687 111.697 65.8663C112.097 65.8639 112.429 65.7267 112.694 65.4548C112.958 65.183 113.09 64.8545 113.088 64.4695C113.085 64.0845 112.95 63.7577 112.683 63.489C112.415 63.2204 112.081 63.0873 111.682 63.0898C111.283 63.0922 110.949 63.2294 110.68 63.5013C110.412 63.7732 110.279 64.1016 110.281 64.4866Z" fill="white"/>
<path d="M83.2705 64.7386C73.4692 64.7386 65.5051 56.8725 65.3468 47.1089L65.3444 46.8125C65.3444 56.7128 57.3187 64.7386 47.4184 64.7386C57.2197 64.7386 65.1837 72.6046 65.342 82.3682L65.3444 82.6646C65.3444 72.7643 73.3702 64.7386 83.2705 64.7386Z" stroke="white" stroke-width="2"/>
</svg>
